LAMMUTAJA RALF peategelaseks on 30 pikka aastat ühes mänguautomaadis kohusetundlikult pahalase rolli täitnud Ralf, kelle ülesandeks mängu sees on… lammutada kõike, mis ette juhtub. Seda ainult selleks, et välja saaks ilmuda mängu kangelane Parandaja Felix, et kõik tema poolt lõhutu ära parandada.

Ralf on aga õrna hingega, vääriti mõistetud tegelane, kes on tüdinud olemast paha. Ja mida suuremaks tüdimus tõuseb, seda suuremaks muutub ka soov…kangelaseks saada. Ja seda iga hinna eest. Olgu selleks kasvõi vaja omaenda mäng hüljata, et teistesse mängudesse kangelase rolli otsima minna.

Video
ID                             : 0
Format                         : MPEG-4 Visual
Format profile                 : Advanced Simple@L5
Format settings, BVOP          : 1
Format settings, QPel          : No
Format settings, GMC           : No warppoints
Format settings, Matrix        : Default (H.263)
Muxing mode                    : Packed bitstream
Codec ID                       : XVID
Codec ID/Hint                  : XviD
Duration                       : 1h 41mn
Bit rate                       : 1 525 Kbps
Width                          : 720 pixels
Height                         : 304 pixels
Display aspect ratio           : 2.35:1
Frame rate                     : 23.976 fps
Color space                    : YUV
Chroma subsampling             : 4:2:0
Bit depth                      : 8 bits
Scan type                      : Progressive
Compression mode               : Lossy
Bits/(Pixel*Frame)             : 0.291
Stream size                    : 1.08 GiB (58%)
Writing library                : XviD 1.2.1 (UTC 2008-12-04)

Audio #1
ID                             : 1
Format                         : AC-3
Format/Info                    : Audio Coding 3
Mode extension                 : CM (complete main)
Format settings, Endianness    : Big
Codec ID                       : 2000
Duration                       : 1h 41mn
Bit rate mode                  : Constant
Bit rate                       : 640 Kbps
Channel(s)                     : 6 channels
Channel positions              : Front: L C R, Side: L R, LFE
Sampling rate                  : 48.0 KHz
Bit depth                      : 16 bits
Compression mode               : Lossy
Stream size                    : 463 MiB (24%)
Alignment                      : Aligned on interleaves
Interleave, duration           : 64 ms (1.53 video frames)
Interleave, preload duration   : 192 ms

Audio #2
ID                             : 2
Format                         : AC-3
Format/Info                    : Audio Coding 3
Mode extension                 : CM (complete main)
Format settings, Endianness    : Big
Codec ID                       : 2000
Duration                       : 1h 41mn
Bit rate mode                  : Constant
Bit rate                       : 448 Kbps
Channel(s)                     : 6 channels
Channel positions              : Front: L C R, Side: L R, LFE
Sampling rate                  : 48.0 KHz
Bit depth                      : 16 bits
Compression mode               : Lossy
Stream size                    : 324 MiB (17%)
Alignment                      : Aligned on interleaves
Interleave, duration           : 64 ms (1.53 video frames)
Interleave, preload duration   : 192 ms
Title                          : eng

